<?xml version="1.0" encoding="utf-8"?>
<!-- Generator: Adobe Illustrator 26.2.1, SVG Export Plug-In . SVG Version: 6.00 Build 0)  -->
<svg version="1.1" id="Camada_1" xmlns="http://www.w3.org/2000/svg" xmlns:xlink="http://www.w3.org/1999/xlink" x="0px" y="0px"
	 viewBox="0 0 260 124.9" style="enable-background:new 0 0 260 124.9;" xml:space="preserve">
<style type="text/css">
	.st0{fill:#F9A70D;}
	.st1{fill:#73C82C;}
	.st2{fill:#0994DC;}
	.st3{fill:#FFFFFF;}
</style>
<g transform="translate(298.01871,735.0666)">
	<path class="st0" d="M-135.3-666.5h-4.1c0,0-10.7,1.2-17.1-8.1c-3-4.7-33.7-50.4-33.7-50.4l-21.4,58.4h-14l24.1-68.6h21.1
		L-135.3-666.5L-135.3-666.5z"/>
	<path class="st1" d="M-205.1-666.5h4.1c0,0,10.7,1.2,17.1-8.1c3-4.7,33.7-50.4,33.7-50.4l21.4,58.4h14l-24.2-68.6H-160
		L-205.1-666.5L-205.1-666.5z"/>
	<path class="st2" d="M-170.2-695l-8.1-12.2l8.1-12.4l8.1,12.4L-170.2-695z"/>
</g>
<g transform="translate(497.9221,727.0889)">
	<path class="st3" d="M-263.8-618.6l6-17.9l5.9,17.9C-251.8-618.6-263.8-618.6-263.8-618.6z M-257.7-644.7c-1.1,0-2,0-2.7,0.1
		c-0.7,0-1.2,0.1-1.6,0.2c-0.4,0.1-0.6,0.3-0.8,0.5c-0.2,0.2-0.3,0.5-0.5,0.9l-13,37.4c-0.3,0.8-0.4,1.4-0.5,1.8
		c-0.1,0.5,0,0.8,0.2,1.1c0.2,0.2,0.6,0.4,1.2,0.5c0.6,0.1,1.3,0.1,2.3,0.1c0.9,0,1.7,0,2.2-0.1c0.6,0,1-0.1,1.3-0.2
		c0.3-0.1,0.6-0.3,0.7-0.5c0.2-0.2,0.3-0.5,0.4-0.8l2.7-8.2h15.8l2.8,8.5c0.1,0.3,0.2,0.5,0.3,0.7c0.1,0.2,0.4,0.3,0.7,0.4
		c0.3,0.1,0.8,0.1,1.4,0.2c0.6,0.1,1.5,0.1,2.6,0.1c1.1,0,1.9,0,2.5-0.1c0.6,0,1-0.2,1.3-0.4c0.2-0.2,0.3-0.6,0.3-1
		c-0.1-0.5-0.2-1.1-0.5-1.9l-13-37.4c-0.1-0.4-0.3-0.7-0.5-1c-0.2-0.2-0.5-0.4-0.9-0.5c-0.4-0.1-1-0.2-1.8-0.2
		C-255.4-644.7-256.4-644.7-257.7-644.7 M-289.9-644.5h-5.8c-0.8,0-1.5,0.1-2.1,0.3c-0.6,0.2-1.1,0.4-1.6,0.8
		c-0.4,0.4-0.8,0.9-1.2,1.5c-0.3,0.6-0.6,1.4-0.9,2.3l-9.6,25l-9.1-25.1c-0.3-0.9-0.6-1.7-0.9-2.3c-0.3-0.6-0.8-1.1-1.3-1.5
		c-0.5-0.4-1.1-0.7-1.8-0.8c-0.7-0.2-1.6-0.3-2.6-0.3h-5.6c-1,0-1.8,0.3-2.3,0.9c-0.6,0.6-0.9,1.4-0.9,2.5v37.5
		c0,0.2,0.1,0.4,0.2,0.6c0.1,0.2,0.4,0.3,0.7,0.4c0.3,0.1,0.7,0.2,1.3,0.3c0.5,0.1,1.2,0.1,2,0.1c0.8,0,1.5,0,2-0.1
		c0.5-0.1,0.9-0.1,1.3-0.3c0.3-0.1,0.5-0.2,0.7-0.4c0.1-0.2,0.2-0.4,0.2-0.6l0.1-34.3l11.8,34.2c0.1,0.2,0.2,0.4,0.4,0.6
		c0.2,0.2,0.5,0.3,0.8,0.5c0.3,0.1,0.8,0.2,1.3,0.2c0.5,0.1,1.1,0.1,1.9,0.1c0.7,0,1.4,0,1.9-0.1c0.5,0,0.9-0.1,1.3-0.2
		c0.4-0.1,0.6-0.3,0.8-0.4c0.2-0.2,0.3-0.4,0.4-0.7l12.3-34.2v34.3c0,0.2,0.1,0.4,0.2,0.6c0.1,0.2,0.3,0.3,0.7,0.4
		c0.3,0.1,0.7,0.2,1.2,0.3c0.5,0.1,1.2,0.1,1.9,0.1c0.8,0,1.5,0,2-0.1c0.5-0.1,0.9-0.1,1.2-0.3c0.3-0.1,0.5-0.2,0.7-0.4
		c0.1-0.2,0.2-0.4,0.2-0.6v-37.5c0-0.5-0.1-1-0.2-1.4c-0.1-0.4-0.3-0.8-0.6-1.1c-0.3-0.3-0.6-0.5-1-0.7
		C-288.9-644.4-289.4-644.5-289.9-644.5 M-354-644.7c-0.8,0-1.5,0-2.1,0.1c-0.5,0.1-1,0.2-1.3,0.2c-0.3,0.1-0.6,0.3-0.7,0.4
		c-0.1,0.2-0.2,0.4-0.2,0.6v39.8c0,0.2,0.1,0.4,0.2,0.6c0.2,0.2,0.4,0.3,0.7,0.4c0.3,0.1,0.8,0.2,1.3,0.3c0.6,0.1,1.3,0.1,2.1,0.1
		c0.8,0,1.5,0,2.1-0.1c0.5-0.1,1-0.1,1.3-0.3c0.3-0.1,0.6-0.2,0.7-0.4c0.2-0.2,0.2-0.4,0.2-0.6v-39.8c0-0.2-0.1-0.4-0.2-0.6
		c-0.1-0.2-0.4-0.3-0.7-0.4c-0.3-0.1-0.8-0.2-1.3-0.2C-352.5-644.7-353.2-644.7-354-644.7 M-391.7-608.9v-12h5.1
		c1.6,0,2.8,0.2,3.8,0.4c1,0.3,1.8,0.7,2.4,1.2c0.6,0.5,1.1,1.2,1.4,2c0.3,0.8,0.5,1.6,0.5,2.6c0,0.9-0.2,1.8-0.5,2.5
		c-0.3,0.7-0.8,1.3-1.4,1.8c-0.6,0.5-1.3,0.8-2.1,1.1c-0.8,0.2-1.8,0.4-3,0.4H-391.7L-391.7-608.9z M-391.7-627.2v-10.9h4.3
		c1.3,0,2.4,0.1,3.2,0.4c0.8,0.2,1.5,0.6,2,1c0.5,0.4,0.9,1,1.2,1.6c0.3,0.7,0.4,1.4,0.4,2.3c0,0.8-0.1,1.5-0.4,2.2
		c-0.2,0.7-0.6,1.3-1.1,1.8c-0.5,0.5-1.1,0.9-1.8,1.2c-0.7,0.3-1.7,0.4-3,0.4H-391.7L-391.7-627.2z M-387-644.5h-10.6
		c-0.7,0-1.3,0.2-1.8,0.6c-0.5,0.4-0.7,1.1-0.7,2v36.7c0,0.9,0.3,1.7,0.7,2.1c0.5,0.4,1.1,0.6,1.8,0.6h11.2c1.7,0,3.2-0.1,4.6-0.3
		c1.4-0.2,2.7-0.6,3.9-1c1.2-0.4,2.3-1,3.3-1.7c1-0.7,1.9-1.5,2.6-2.4c0.7-0.9,1.3-2,1.7-3.2c0.4-1.2,0.6-2.6,0.6-4.1
		c0-1.4-0.2-2.7-0.7-3.9c-0.4-1.1-1-2.1-1.8-3c-0.7-0.9-1.6-1.6-2.6-2.1c-1-0.5-2.1-0.9-3.3-1.1c0.9-0.3,1.8-0.8,2.5-1.4
		c0.7-0.6,1.4-1.2,1.9-1.9c0.5-0.7,0.9-1.6,1.1-2.4c0.3-0.9,0.4-1.9,0.4-2.9c0-1.8-0.3-3.4-1-4.8c-0.7-1.3-1.6-2.4-2.8-3.3
		c-1.2-0.9-2.7-1.5-4.5-2C-382.2-644.3-384.4-644.5-387-644.5 M-418.1-644.6c-0.8,0-1.4,0-1.9,0.1c-0.5,0-0.9,0.1-1.2,0.3
		c-0.3,0.1-0.5,0.3-0.6,0.5c-0.1,0.2-0.2,0.4-0.2,0.6v19.8c0,1.5,0,3.1,0,4.7c0,1.6,0.1,3.2,0.1,4.7c-0.4-0.9-0.8-1.7-1.2-2.6
		l-1.3-2.6c-0.4-0.9-0.9-1.8-1.4-2.7l-1.4-2.8l-8.2-15.4c-0.4-0.8-0.8-1.5-1.2-2.1c-0.4-0.6-0.8-1-1.3-1.4c-0.4-0.3-0.9-0.5-1.5-0.7
		c-0.6-0.2-1.2-0.2-2.1-0.2h-4.6c-0.9,0-1.6,0.3-2.2,0.8c-0.6,0.5-0.9,1.3-0.9,2.3v37.9c0,0.2,0.1,0.4,0.2,0.6
		c0.1,0.2,0.3,0.3,0.6,0.5c0.3,0.1,0.7,0.2,1.2,0.3c0.5,0.1,1.1,0.1,1.9,0.1c0.8,0,1.4,0,1.9-0.1c0.5-0.1,0.9-0.1,1.2-0.3
		c0.3-0.1,0.5-0.3,0.6-0.5c0.1-0.2,0.2-0.4,0.2-0.6v-22c0-1.6,0-3.2-0.1-4.8c0-1.6-0.1-3.1-0.1-4.7c0.5,1.3,1.1,2.6,1.7,4
		c0.6,1.3,1.2,2.6,1.9,3.8l10.5,19.7c0.6,1.1,1,2,1.5,2.7c0.4,0.7,0.9,1.2,1.3,1.6c0.5,0.4,1,0.7,1.5,0.8c0.6,0.1,1.2,0.2,2,0.2h3.6
		c0.4,0,0.8-0.1,1.2-0.2c0.4-0.1,0.8-0.3,1-0.6c0.3-0.3,0.5-0.6,0.7-1c0.2-0.4,0.3-0.8,0.3-1.3v-37.9c0-0.2-0.1-0.4-0.2-0.6
		c-0.1-0.2-0.3-0.3-0.6-0.5c-0.3-0.1-0.6-0.2-1.1-0.3C-416.7-644.6-417.4-644.6-418.1-644.6 M-485-618.6l6-17.9l6,17.9H-485
		L-485-618.6z M-478.9-644.7c-1.1,0-2,0-2.7,0.1c-0.7,0-1.2,0.1-1.6,0.2c-0.4,0.1-0.6,0.3-0.8,0.5c-0.2,0.2-0.3,0.5-0.4,0.9
		l-13,37.4c-0.3,0.8-0.4,1.4-0.5,1.8c-0.1,0.5,0,0.8,0.2,1.1c0.2,0.2,0.6,0.4,1.2,0.5c0.6,0.1,1.3,0.1,2.3,0.1c0.9,0,1.7,0,2.2-0.1
		c0.6,0,1-0.1,1.3-0.2c0.3-0.1,0.6-0.3,0.7-0.5c0.1-0.2,0.3-0.5,0.4-0.8l2.7-8.2h15.8l2.8,8.5c0.1,0.3,0.2,0.5,0.3,0.7
		c0.1,0.2,0.4,0.3,0.7,0.4c0.3,0.1,0.8,0.1,1.4,0.2c0.6,0.1,1.5,0.1,2.6,0.1c1.1,0,1.9,0,2.5-0.1c0.6,0,1-0.2,1.3-0.4
		c0.2-0.2,0.3-0.6,0.3-1c-0.1-0.5-0.2-1.1-0.5-1.9l-13-37.4c-0.1-0.4-0.3-0.7-0.5-1c-0.2-0.2-0.5-0.4-0.9-0.5
		c-0.4-0.1-1-0.2-1.8-0.2C-476.6-644.7-477.6-644.7-478.9-644.7"/>
</g>
</svg>
