<svg xmlns="http://www.w3.org/2000/svg" width="364.361" height="169.295" viewBox="0 0 364.361 169.295">
  <g id="Grupo_2110" data-name="Grupo 2110" transform="translate(-2287.821 -728.852)">
    <path id="Caminho_1051" data-name="Caminho 1051" d="M194.545,312.407a45.247,45.247,0,0,1-18.234-3.5,39.852,39.852,0,0,1-13.616-9.555,41.4,41.4,0,0,1-8.52-14.253,51.61,51.61,0,0,1-2.946-17.6,50.893,50.893,0,0,1,3.026-17.757,42.451,42.451,0,0,1,8.6-14.253,39.57,39.57,0,0,1,13.377-9.475,45.5,45.5,0,0,1,33.84-.319,37.636,37.636,0,0,1,12.66,8.838,42.158,42.158,0,0,1,9.236,16.323,68.839,68.839,0,0,1,2.866,21.579H171.294q1.113,10.988,6.928,17.756T194.7,296.96q7.323,0,12.023-2.946a16.618,16.618,0,0,0,6.769-8.2h19.747a36.3,36.3,0,0,1-4.857,10.59,33.444,33.444,0,0,1-8.2,8.44,38.581,38.581,0,0,1-11.387,5.574,48.214,48.214,0,0,1-14.253,1.99m-1.115-75.166q-10.032,0-15.288,6.211T171.613,259.7h42.361q-.638-10.511-5.972-16.482t-14.572-5.972m85.676,31.85-10.033,10.032v30.736H249.007V191.377h20.065v45.864q0,6.054-.239,11.625t-.4,9.237l32.009-33.284h24.048l-31.214,31.054,34.876,53.986H304.586Zm80.5-39.892q-.083,4.222-.239,7.883h.478a31.778,31.778,0,0,1,10.749-10.67,29.931,29.931,0,0,1,15.527-3.822q13.855,0,21.579,7.883t7.724,21.738v57.649H395.2v-54.3q0-7.644-4.22-11.944t-12.023-4.3a19.5,19.5,0,0,0-7.8,1.513,17.525,17.525,0,0,0-6.051,4.3,20.162,20.162,0,0,0-3.982,6.609,23.4,23.4,0,0,0-1.433,8.281v49.845H339.461V191.377h20.224v31.85q0,1.754-.079,5.972m112.827,83.208a44.41,44.41,0,0,1-17.916-3.5,40.692,40.692,0,0,1-13.7-9.555,42.816,42.816,0,0,1-8.759-14.253,51.862,51.862,0,0,1,0-35.354,42.863,42.863,0,0,1,8.759-14.253,39.835,39.835,0,0,1,13.7-9.475,45.3,45.3,0,0,1,17.916-3.424,44.735,44.735,0,0,1,17.836,3.424,40.063,40.063,0,0,1,13.617,9.475,41.891,41.891,0,0,1,8.679,14.253,53.152,53.152,0,0,1,0,35.354,41.847,41.847,0,0,1-8.679,14.253,40.939,40.939,0,0,1-13.617,9.555,43.861,43.861,0,0,1-17.836,3.5m-.16-15.288a20.646,20.646,0,0,0,9.794-2.23,20.37,20.37,0,0,0,7.087-6.211,29.53,29.53,0,0,0,4.379-9.4,43.676,43.676,0,0,0,1.513-11.785,44.58,44.58,0,0,0-1.513-11.864,30.46,30.46,0,0,0-4.379-9.555,20.112,20.112,0,0,0-7.087-6.29,20.677,20.677,0,0,0-9.794-2.23,21.145,21.145,0,0,0-9.873,2.23,19.885,19.885,0,0,0-7.166,6.29,29.169,29.169,0,0,0-4.3,9.555A46.914,46.914,0,0,0,449.5,267.5a45.96,45.96,0,0,0,1.433,11.785,28.282,28.282,0,0,0,4.3,9.4,20.136,20.136,0,0,0,7.166,6.211,21.113,21.113,0,0,0,9.873,2.23" transform="translate(2136.592 537.475)" fill="#fff"/>
    <path id="Caminho_1062" data-name="Caminho 1062" d="M10.989.555A9.8,9.8,0,0,1,6.9-.259,8.95,8.95,0,0,1,3.848-2.5a9.668,9.668,0,0,1-1.906-3.33,12.625,12.625,0,0,1-.648-4.089,11.893,11.893,0,0,1,.685-4.051A10.341,10.341,0,0,1,3.9-17.3a8.855,8.855,0,0,1,3-2.238,9.177,9.177,0,0,1,3.9-.814,8.988,8.988,0,0,1,3.922.814,8.341,8.341,0,0,1,2.886,2.257,9.9,9.9,0,0,1,1.832,3.552,16.34,16.34,0,0,1,.61,4.625H4.81a10.5,10.5,0,0,0,.555,2.7A6.955,6.955,0,0,0,6.586-4.218,5.434,5.434,0,0,0,8.473-2.775a5.974,5.974,0,0,0,2.553.518,6.015,6.015,0,0,0,3.423-.907,4.475,4.475,0,0,0,1.832-2.5h3.367a7.74,7.74,0,0,1-2.942,4.5A9.209,9.209,0,0,1,10.989.555ZM10.8-17.686a5.754,5.754,0,0,0-2.368.462A5.277,5.277,0,0,0,6.66-15.947a6.314,6.314,0,0,0-1.184,1.924,9.321,9.321,0,0,0-.592,2.442H16.391a7.132,7.132,0,0,0-1.572-4.5A5.08,5.08,0,0,0,10.8-17.686Zm12.913-2.183h3.4v2.96h.111a6.8,6.8,0,0,1,2.442-2.535,6.578,6.578,0,0,1,3.441-.906,5.461,5.461,0,0,1,3.163.925,5.3,5.3,0,0,1,1.98,2.775h.074a7.111,7.111,0,0,1,2.7-2.794,6.969,6.969,0,0,1,3.441-.906,6.079,6.079,0,0,1,4.44,1.665,6.428,6.428,0,0,1,1.7,4.81V0H47.175V-13.579a3.837,3.837,0,0,0-1.036-2.868,3.5,3.5,0,0,0-2.553-1.017,4.314,4.314,0,0,0-1.813.389,4.441,4.441,0,0,0-1.48,1.092,5.7,5.7,0,0,0-1.017,1.647,5.441,5.441,0,0,0-.389,2.09V0h-3.4V-13.579a4.112,4.112,0,0,0-.925-2.868,3.186,3.186,0,0,0-2.479-1.017,4.4,4.4,0,0,0-1.776.389,4.94,4.94,0,0,0-1.573,1.092A6,6,0,0,0,27.6-14.337a4.848,4.848,0,0,0-.444,2.09V0H23.717Zm31.524,0h3.4v3.108h.111A8.456,8.456,0,0,1,61.4-19.406a6.9,6.9,0,0,1,3.681-.944,8.2,8.2,0,0,1,3.46.722,7.628,7.628,0,0,1,2.7,2.072A9.759,9.759,0,0,1,73-14.264a14.2,14.2,0,0,1,.629,4.385,14.7,14.7,0,0,1-.592,4.329,9.5,9.5,0,0,1-1.72,3.293A7.641,7.641,0,0,1,68.579-.148a8.537,8.537,0,0,1-3.607.74,7.848,7.848,0,0,1-3.626-.814,6.808,6.808,0,0,1-2.627-2.405h-.111q.037.518.056,1.351T58.682.7V6.734H55.241ZM64.6-2.257a4.885,4.885,0,0,0,2.4-.573A5,5,0,0,0,68.728-4.4,7.4,7.4,0,0,0,69.764-6.79,12.258,12.258,0,0,0,70.115-9.8a13.145,13.145,0,0,0-.333-3.034,7.326,7.326,0,0,0-1.017-2.424,4.933,4.933,0,0,0-1.721-1.591,4.885,4.885,0,0,0-2.4-.573,5.9,5.9,0,0,0-2.738.592A5.4,5.4,0,0,0,60-15.207a7.2,7.2,0,0,0-1.129,2.424A11.524,11.524,0,0,0,58.5-9.8a12.571,12.571,0,0,0,.333,2.941,6.7,6.7,0,0,0,1.073,2.4A5.305,5.305,0,0,0,61.79-2.849,6.078,6.078,0,0,0,64.6-2.257ZM80.7-16.28h.111a7.939,7.939,0,0,1,2.4-2.793,5.837,5.837,0,0,1,3.478-1.055,3.563,3.563,0,0,1,.685.056,3.707,3.707,0,0,1,.574.167v3.256h-.111a4.132,4.132,0,0,0-.666-.148,6.135,6.135,0,0,0-.74-.037,5.69,5.69,0,0,0-2.183.426,5.481,5.481,0,0,0-1.813,1.2A5.771,5.771,0,0,0,81.2-13.32a6.489,6.489,0,0,0-.463,2.516V0H77.293V-19.869h3.4ZM98.494.555a9.8,9.8,0,0,1-4.089-.814A8.95,8.95,0,0,1,91.353-2.5a9.668,9.668,0,0,1-1.906-3.33A12.625,12.625,0,0,1,88.8-9.916a11.893,11.893,0,0,1,.685-4.051,10.341,10.341,0,0,1,1.924-3.33,8.855,8.855,0,0,1,3-2.238,9.177,9.177,0,0,1,3.9-.814,8.988,8.988,0,0,1,3.922.814,8.341,8.341,0,0,1,2.886,2.257,9.9,9.9,0,0,1,1.832,3.552,16.34,16.34,0,0,1,.61,4.625H92.315a10.5,10.5,0,0,0,.555,2.7,6.955,6.955,0,0,0,1.221,2.183,5.434,5.434,0,0,0,1.887,1.443,5.974,5.974,0,0,0,2.553.518,6.015,6.015,0,0,0,3.423-.907,4.475,4.475,0,0,0,1.831-2.5h3.367a7.74,7.74,0,0,1-2.942,4.5A9.209,9.209,0,0,1,98.494.555Zm-.185-18.241a5.754,5.754,0,0,0-2.368.462,5.277,5.277,0,0,0-1.776,1.276,6.314,6.314,0,0,0-1.184,1.924,9.321,9.321,0,0,0-.592,2.442H103.9a7.132,7.132,0,0,0-1.573-4.5A5.08,5.08,0,0,0,98.309-17.686ZM118.844.592a10.063,10.063,0,0,1-6.4-1.794,6.494,6.494,0,0,1-2.479-4.829h3.478a4.386,4.386,0,0,0,.629,1.813,3.8,3.8,0,0,0,1.2,1.184,5.28,5.28,0,0,0,1.646.648,9.292,9.292,0,0,0,2,.2,5.216,5.216,0,0,0,3.423-.906,2.838,2.838,0,0,0,1.054-2.238A2.332,2.332,0,0,0,122.118-7.6a15.936,15.936,0,0,0-3.9-1.165q-1.443-.3-2.794-.666a9,9,0,0,1-2.368-1,4.783,4.783,0,0,1-1.628-1.665,5.194,5.194,0,0,1-.611-2.664,4.883,4.883,0,0,1,1.906-4.051,8.525,8.525,0,0,1,5.383-1.5,8.7,8.7,0,0,1,5.661,1.591,6.255,6.255,0,0,1,2.257,4.181h-3.441a3.41,3.41,0,0,0-1.313-2.368,5.378,5.378,0,0,0-3.237-.814,4.345,4.345,0,0,0-2.942.814,2.544,2.544,0,0,0-.906,1.961,2.167,2.167,0,0,0,.351,1.277,2.644,2.644,0,0,0,1.036.833,7.73,7.73,0,0,0,1.665.555q.98.222,2.239.481,1.48.3,2.812.666a8.33,8.33,0,0,1,2.35,1.036,4.8,4.8,0,0,1,1.609,1.757,5.916,5.916,0,0,1,.592,2.831,5.73,5.73,0,0,1-.592,2.664A5.326,5.326,0,0,1,124.6-.943,7.6,7.6,0,0,1,122.063.2,12.652,12.652,0,0,1,118.844.592ZM136.826.407A9.657,9.657,0,0,1,134.18.056,6.235,6.235,0,0,1,132.035-1a4.957,4.957,0,0,1-1.424-1.757,5.608,5.608,0,0,1-.518-2.5A5.876,5.876,0,0,1,130.7-8.1a4.623,4.623,0,0,1,1.739-1.776,9.638,9.638,0,0,1,2.7-1.036,30.7,30.7,0,0,1,3.5-.592,19.253,19.253,0,0,0,2-.3,6.252,6.252,0,0,0,1.517-.5,2.492,2.492,0,0,0,.962-.8,2.167,2.167,0,0,0,.333-1.258,3.167,3.167,0,0,0-1.091-2.553,4.769,4.769,0,0,0-3.163-.925A5.189,5.189,0,0,0,135.66-16.8a3.8,3.8,0,0,0-1.24,2.812h-3.33a6.232,6.232,0,0,1,.555-2.4,6.027,6.027,0,0,1,1.517-2.035,7.3,7.3,0,0,1,2.5-1.406,10.7,10.7,0,0,1,3.5-.518,12.651,12.651,0,0,1,2.627.259,7.418,7.418,0,0,1,2.183.814,5.125,5.125,0,0,1,1.961,2.072,7.082,7.082,0,0,1,.7,3.33v9.287a3.151,3.151,0,0,0,.407,1.776q.407.592,1.7.3h.148V-.111q-.37.111-.8.2a5.068,5.068,0,0,1-1.055.093,3.41,3.41,0,0,1-2.4-.758,4.16,4.16,0,0,1-1.11-2.35h-.037a8.818,8.818,0,0,1-1.11,1.258A7.5,7.5,0,0,1,140.933-.61,7.9,7.9,0,0,1,139.1.13,8.648,8.648,0,0,1,136.826.407Zm.851-2.516a6.132,6.132,0,0,0,2.571-.5,5.792,5.792,0,0,0,1.813-1.258,5.012,5.012,0,0,0,1.073-1.684,4.994,4.994,0,0,0,.352-1.776v-3.256a7.394,7.394,0,0,1-1.943.833,23.82,23.82,0,0,1-2.423.574q-1.221.222-2.22.462a5.978,5.978,0,0,0-1.7.666,3.138,3.138,0,0,0-1.092,1.073,3.24,3.24,0,0,0-.389,1.683,3.268,3.268,0,0,0,.333,1.573,2.724,2.724,0,0,0,.888.981,3.334,3.334,0,0,0,1.277.5A8.256,8.256,0,0,0,137.677-2.109Zm21.645,2.7a10.063,10.063,0,0,1-6.4-1.794,6.494,6.494,0,0,1-2.479-4.829h3.478a4.386,4.386,0,0,0,.629,1.813,3.8,3.8,0,0,0,1.2,1.184,5.28,5.28,0,0,0,1.646.648,9.292,9.292,0,0,0,2,.2,5.216,5.216,0,0,0,3.423-.906,2.838,2.838,0,0,0,1.055-2.238A2.332,2.332,0,0,0,162.6-7.6a15.935,15.935,0,0,0-3.9-1.165q-1.443-.3-2.793-.666a9,9,0,0,1-2.368-1A4.783,4.783,0,0,1,151.9-12.1a5.194,5.194,0,0,1-.611-2.664,4.883,4.883,0,0,1,1.906-4.051,8.525,8.525,0,0,1,5.383-1.5,8.7,8.7,0,0,1,5.661,1.591,6.255,6.255,0,0,1,2.257,4.181h-3.441a3.41,3.41,0,0,0-1.314-2.368,5.378,5.378,0,0,0-3.238-.814,4.345,4.345,0,0,0-2.941.814,2.544,2.544,0,0,0-.906,1.961,2.167,2.167,0,0,0,.352,1.277,2.644,2.644,0,0,0,1.036.833,7.73,7.73,0,0,0,1.665.555q.981.222,2.239.481,1.48.3,2.812.666a8.33,8.33,0,0,1,2.35,1.036,4.8,4.8,0,0,1,1.609,1.757,5.916,5.916,0,0,1,.592,2.831,5.73,5.73,0,0,1-.592,2.664,5.326,5.326,0,0,1-1.646,1.905A7.6,7.6,0,0,1,162.541.2,12.652,12.652,0,0,1,159.322.592Z" transform="translate(2480.417 891.413)" fill="#fff"/>
  </g>
</svg>
