<?xml version="1.0" encoding="UTF-8"?><svg xmlns="http://www.w3.org/2000/svg" viewBox="0 0 687.43 322.38"><defs><style>.d{fill:#fff;}</style></defs><g id="a"/><g id="b"><g id="c"><path class="d" d="M483.88,73.76c9.71,9.92,14.57,23.59,14.57,41.01v108.76h-38.16V121.08c0-9.61-2.66-17.13-7.96-22.53-5.31-5.41-12.87-8.11-22.68-8.11-5.41,0-10.32,.95-14.72,2.85-4.41,1.91-8.22,4.61-11.42,8.11-3.21,3.51-5.71,7.66-7.51,12.47-1.8,4.81-2.7,10.02-2.7,15.62v94.04h-38.16V0h38.16V60.09c0,2.21-.05,5.96-.15,11.27-.1,5.31-.25,10.27-.45,14.87h.9c5.41-8.61,12.17-15.32,20.28-20.13,8.11-4.81,17.88-7.21,29.29-7.21,17.43,0,30.99,4.96,40.71,14.87ZM157.74,152.93H37.86c1.4,13.82,5.76,24.99,13.07,33.5,7.31,8.52,17.67,12.77,31.1,12.77,9.21,0,16.77-1.85,22.68-5.56,5.91-3.7,10.16-8.86,12.77-15.47h37.26c-2,7.21-5.06,13.87-9.16,19.98-4.11,6.11-9.27,11.42-15.47,15.92-6.21,4.51-13.37,8.01-21.48,10.52-8.11,2.5-17.08,3.75-26.89,3.75-12.82,0-24.29-2.21-34.4-6.61-10.12-4.4-18.68-10.41-25.69-18.03-7.01-7.61-12.37-16.57-16.07-26.89-3.71-10.31-5.56-21.38-5.56-33.2s1.9-23.18,5.71-33.5c3.8-10.31,9.21-19.28,16.22-26.89,7.01-7.61,15.42-13.57,25.24-17.88,9.81-4.3,20.63-6.46,32.45-6.46s22.28,1.95,31.4,5.86c9.11,3.91,17.07,9.46,23.89,16.68,7.81,8.41,13.62,18.68,17.43,30.8,3.8,12.12,5.61,25.69,5.41,40.71Zm-39.36-24.04c-.8-13.22-4.56-23.59-11.27-31.1-6.71-7.51-15.88-11.27-27.49-11.27-12.62,0-22.23,3.91-28.84,11.72-6.61,7.81-10.72,18.03-12.32,30.65H118.38Zm521.28,92.84c-10.02,4.4-21.23,6.61-33.65,6.61s-23.69-2.21-33.8-6.61c-10.12-4.4-18.73-10.41-25.84-18.03-7.11-7.61-12.62-16.57-16.53-26.89-3.91-10.31-5.86-21.38-5.86-33.2s1.95-23.18,5.86-33.5c3.91-10.31,9.41-19.28,16.53-26.89,7.11-7.61,15.72-13.57,25.84-17.88,10.11-4.3,21.38-6.46,33.8-6.46s23.63,2.15,33.65,6.46c10.01,4.31,18.58,10.27,25.69,17.88,7.11,7.61,12.57,16.58,16.38,26.89,3.8,10.32,5.71,21.48,5.71,33.5s-1.91,22.89-5.71,33.2c-3.81,10.32-9.27,19.28-16.38,26.89-7.11,7.61-15.68,13.62-25.69,18.03Zm-2.1-38.16c3.61-5,6.36-10.92,8.26-17.73,1.9-6.81,2.85-14.22,2.85-22.23s-.95-15.47-2.85-22.38c-1.91-6.91-4.66-12.92-8.26-18.03-3.61-5.11-8.07-9.06-13.37-11.87-5.31-2.8-11.47-4.21-18.48-4.21s-13.22,1.4-18.63,4.21c-5.41,2.81-9.92,6.76-13.52,11.87-3.61,5.11-6.31,11.12-8.11,18.03s-2.7,14.38-2.7,22.38,.9,15.43,2.7,22.23c1.8,6.81,4.51,12.72,8.11,17.73,3.61,5.01,8.11,8.92,13.52,11.72,5.41,2.81,11.61,4.21,18.63,4.21s13.17-1.4,18.48-4.21c5.3-2.8,9.76-6.71,13.37-11.72Zm-303.75,39.96l-65.8-101.85,58.89-58.59h-45.37l-60.39,62.8c.2-4.61,.45-10.41,.75-17.43,.3-7.01,.45-14.32,.45-21.93V0h-37.86V223.54h37.86v-57.99l18.93-18.93,48.07,76.92h44.47Zm62.37,45.93c-2.35,0-4.57,.59-6.68,1.76-2.11,1.17-3.85,2.98-5.24,5.42h-.14c-.81-2.39-2.09-4.19-3.84-5.38-1.75-1.2-3.79-1.79-6.14-1.79-2.49,0-4.71,.59-6.68,1.76-1.96,1.17-3.54,2.81-4.74,4.92h-.22v-5.74h-6.61v38.55h6.68v-23.76c0-1.48,.29-2.84,.86-4.06,.57-1.22,1.3-2.29,2.19-3.19,.88-.91,1.9-1.62,3.05-2.12,1.15-.5,2.3-.75,3.45-.75,2.01,0,3.61,.66,4.81,1.97,1.2,1.32,1.79,3.17,1.79,5.56v26.35h6.6v-23.76c0-1.48,.25-2.84,.75-4.06,.5-1.22,1.16-2.29,1.97-3.19,.81-.91,1.77-1.62,2.87-2.12,1.1-.5,2.27-.75,3.52-.75,1.96,0,3.61,.66,4.95,1.97,1.34,1.32,2.01,3.17,2.01,5.56v26.35h6.68v-26.92c0-4.07-1.1-7.18-3.3-9.33-2.2-2.15-5.07-3.23-8.62-3.23Zm-46.02,34.6h.29v4.67c-.48,.14-.99,.27-1.54,.39-.55,.12-1.23,.18-2.05,.18-2.06,0-3.61-.49-4.67-1.47-1.05-.98-1.77-2.5-2.15-4.56h-.07c-.62,.86-1.34,1.68-2.15,2.44-.81,.77-1.75,1.45-2.8,2.05-1.05,.6-2.24,1.08-3.55,1.44-1.32,.36-2.79,.54-4.42,.54-1.82,0-3.53-.23-5.13-.68-1.6-.45-2.99-1.14-4.16-2.05-1.17-.91-2.09-2.05-2.76-3.41-.67-1.36-1.01-2.98-1.01-4.85,0-2.25,.4-4.09,1.18-5.53,.79-1.44,1.91-2.58,3.37-3.45,1.46-.86,3.21-1.53,5.24-2.01,2.03-.48,4.3-.86,6.78-1.15,1.44-.14,2.73-.33,3.88-.57,1.15-.24,2.13-.56,2.94-.97,.81-.41,1.44-.92,1.87-1.54,.43-.62,.65-1.44,.65-2.44,0-2.11-.71-3.76-2.12-4.95-1.41-1.2-3.46-1.79-6.14-1.79-3.06,0-5.35,.67-6.86,2.01-1.51,1.34-2.31,3.16-2.41,5.46h-6.46c.05-1.63,.41-3.18,1.08-4.67,.67-1.48,1.65-2.8,2.94-3.95,1.29-1.15,2.91-2.06,4.85-2.73,1.94-.67,4.2-1.01,6.78-1.01,1.82,0,3.52,.17,5.1,.5,1.58,.34,2.99,.86,4.24,1.58,1.63,.96,2.9,2.3,3.81,4.02,.91,1.72,1.36,3.88,1.36,6.46v18.02c0,1.53,.26,2.68,.79,3.45,.53,.77,1.63,.96,3.3,.57Zm-10.19-15.65c-.96,.62-2.21,1.16-3.77,1.62-1.56,.46-3.12,.83-4.7,1.11-1.58,.29-3.02,.59-4.31,.9-1.29,.31-2.39,.74-3.3,1.29-.91,.55-1.62,1.25-2.12,2.08-.5,.84-.75,1.93-.75,3.27,0,1.24,.22,2.26,.65,3.05,.43,.79,1,1.42,1.72,1.9,.72,.48,1.54,.8,2.48,.97,.93,.17,1.88,.25,2.84,.25,1.91,0,3.58-.32,4.99-.97,1.41-.65,2.58-1.46,3.52-2.44,.93-.98,1.63-2.07,2.08-3.27,.46-1.2,.68-2.34,.68-3.45v-6.32Zm-33.67-33.24c-1.87,0-3.51,.17-4.92,.5-1.41,.34-2.6,.91-3.55,1.72-1.82,1.58-2.73,4.14-2.73,7.68v5.31h-5.96v5.24h5.96v33.31h6.68v-33.31h7.9v-5.24h-7.9v-5.03c0-1,.12-1.82,.36-2.44,.24-.62,.66-1.11,1.26-1.47,.6-.36,1.41-.57,2.44-.65,1.03-.07,2.33-.06,3.91,.04v-5.53c-.62-.05-1.22-.08-1.79-.11-.57-.02-1.12-.04-1.65-.04Zm110.77,53.77h6.68v-38.55h-6.68v38.55Zm270.37-17.66h-29.58c.14,1.87,.5,3.61,1.08,5.24,.57,1.63,1.36,3.04,2.37,4.24,1.01,1.2,2.23,2.13,3.66,2.8,1.44,.67,3.09,1.01,4.95,1.01,2.68,0,4.89-.59,6.64-1.76,1.75-1.17,2.93-2.79,3.55-4.85h6.53c-.86,3.59-2.76,6.5-5.71,8.72-2.94,2.23-6.64,3.34-11.09,3.34-2.97,0-5.61-.53-7.93-1.58-2.32-1.05-4.3-2.5-5.92-4.34-1.63-1.84-2.86-4-3.7-6.46-.84-2.46-1.26-5.11-1.26-7.93s.44-5.4,1.33-7.86c.88-2.46,2.13-4.62,3.73-6.46,1.6-1.84,3.54-3.29,5.81-4.34,2.27-1.05,4.8-1.58,7.57-1.58s5.41,.53,7.61,1.58c2.2,1.05,4.07,2.51,5.6,4.38,1.58,1.91,2.76,4.21,3.55,6.89,.79,2.68,1.18,5.67,1.18,8.97Zm-7.11-4.81c-.19-3.73-1.21-6.64-3.05-8.72-1.84-2.08-4.44-3.12-7.79-3.12-1.72,0-3.26,.3-4.59,.9-1.34,.6-2.49,1.42-3.45,2.48-.96,1.05-1.72,2.3-2.3,3.73-.57,1.44-.96,3.02-1.15,4.74h22.33Zm-93.62-31.3c-1.87,0-3.51,.17-4.92,.5-1.41,.34-2.6,.91-3.55,1.72-1.82,1.58-2.73,4.14-2.73,7.68v5.31h-17.73v-5.03c0-1,.12-1.82,.36-2.44,.24-.62,.66-1.11,1.26-1.47,.6-.36,1.41-.57,2.44-.65,1.03-.07,2.33-.06,3.91,.04v-5.53c-.62-.05-1.22-.08-1.79-.11-.57-.02-1.12-.04-1.65-.04-1.87,0-3.51,.17-4.92,.5-1.41,.34-2.6,.91-3.55,1.72-1.82,1.58-2.73,4.14-2.73,7.68v5.31h-5.96v5.24h5.96v33.31h6.68v-33.31h17.73v33.31h6.68v-33.31h7.9v-5.24h-7.9v-5.03c0-1,.12-1.82,.36-2.44,.24-.62,.66-1.11,1.26-1.47,.6-.36,1.41-.57,2.44-.65,1.03-.07,2.33-.06,3.91,.04v-5.53c-.62-.05-1.22-.08-1.79-.11-.57-.02-1.12-.04-1.65-.04Zm10.19,8.11h6.96v-7.75h-6.96v7.75Zm.14,45.66h6.68v-38.55h-6.68v38.55Zm39.74-6.86c-1.75,1.65-4.13,2.48-7.14,2.48-1.96,0-3.7-.38-5.2-1.15-1.51-.76-2.76-1.82-3.77-3.16-1.01-1.34-1.76-2.91-2.26-4.7-.5-1.79-.75-3.74-.75-5.85s.25-4,.75-5.82c.5-1.82,1.26-3.4,2.26-4.74,1.01-1.34,2.26-2.39,3.77-3.16,1.51-.76,3.24-1.15,5.2-1.15,2.82,0,5.07,.72,6.75,2.15,1.68,1.44,2.75,3.42,3.23,5.96h6.68c-.67-4.16-2.45-7.45-5.35-9.87-2.9-2.42-6.67-3.63-11.31-3.63-2.87,0-5.47,.53-7.79,1.58-2.32,1.05-4.3,2.5-5.92,4.34-1.63,1.84-2.88,4-3.77,6.46-.89,2.47-1.33,5.09-1.33,7.86s.44,5.47,1.33,7.93c.88,2.47,2.14,4.62,3.77,6.46,1.63,1.84,3.6,3.29,5.92,4.34,2.32,1.05,4.92,1.58,7.79,1.58,4.93,0,8.84-1.29,11.74-3.88,2.9-2.58,4.56-6.2,4.99-10.84h-6.61c-.24,2.87-1.23,5.13-2.98,6.78Zm-96.95-20.25c.86,2.47,1.29,5.09,1.29,7.86s-.43,5.47-1.29,7.93c-.86,2.47-2.11,4.62-3.73,6.46-1.63,1.84-3.59,3.29-5.89,4.34-2.3,1.05-4.91,1.58-7.83,1.58s-5.54-.53-7.86-1.58c-2.32-1.05-4.3-2.5-5.92-4.34-1.63-1.84-2.88-4-3.77-6.46-.89-2.46-1.33-5.11-1.33-7.93s.44-5.4,1.33-7.86c.88-2.46,2.14-4.62,3.77-6.46,1.63-1.84,3.6-3.29,5.92-4.34,2.32-1.05,4.94-1.58,7.86-1.58s5.53,.53,7.83,1.58c2.3,1.05,4.26,2.5,5.89,4.34,1.63,1.84,2.87,4,3.73,6.46Zm-5.53,7.86c0-2.06-.25-4-.75-5.82-.5-1.82-1.26-3.41-2.26-4.77-1-1.36-2.26-2.43-3.77-3.19-1.51-.77-3.24-1.15-5.21-1.15s-3.7,.38-5.2,1.15c-1.51,.77-2.76,1.83-3.77,3.19s-1.76,2.96-2.26,4.77c-.5,1.82-.75,3.76-.75,5.82s.25,4.06,.75,5.85c.5,1.79,1.26,3.36,2.26,4.7,1.01,1.34,2.26,2.39,3.77,3.16,1.51,.77,3.24,1.15,5.2,1.15s3.7-.38,5.21-1.15c1.51-.76,2.76-1.82,3.77-3.16,1.01-1.34,1.76-2.91,2.26-4.7,.5-1.79,.75-3.74,.75-5.85Zm-117.38-26.42h6.96v-7.75h-6.96v7.75Zm16.22,45.66h6.68v-53.41h-6.68v53.41Zm33.74-17.16c-.38,1.1-.77,2.25-1.15,3.45-.38,1.2-.74,2.32-1.08,3.37-.38,1.24-.74,2.44-1.08,3.59h-.14c-.34-1.15-.67-2.34-1-3.59-.34-1.05-.69-2.18-1.08-3.37-.38-1.2-.77-2.34-1.15-3.45l-7.97-21.39h-7.25l14.72,36.61c.05,.1,0,.41-.14,.93-.14,.53-.31,1.08-.5,1.65-.19,.57-.36,1.09-.5,1.54-.14,.45-.21,.71-.21,.75-.67,1.82-1.46,3.05-2.37,3.7-.91,.65-2.03,.97-3.37,.97-.81,0-1.59-.06-2.33-.18-.74-.12-1.31-.3-1.69-.54h-.29v5.74c.53,.24,1.33,.43,2.41,.57s2.17,.22,3.27,.22c1.24,0,2.38-.13,3.41-.39,1.03-.26,1.99-.77,2.87-1.51,.89-.74,1.72-1.76,2.51-3.05,.79-1.29,1.59-2.94,2.41-4.95l16.37-42.07h-6.96l-7.68,21.39Z"/></g></g></svg>