<?xml version="1.0" encoding="utf-8"?>
<!-- Generator: Adobe Illustrator 26.2.1, SVG Export Plug-In . SVG Version: 6.00 Build 0)  -->
<svg version="1.1" id="Camada_1" xmlns="http://www.w3.org/2000/svg" xmlns:xlink="http://www.w3.org/1999/xlink" x="0px" y="0px"
	 viewBox="0 0 391 258" style="enable-background:new 0 0 391 258;" xml:space="preserve">
<style type="text/css">
	.st0{fill:none;stroke:#1178CE;stroke-width:0.72;stroke-miterlimit:10;}
	.st1{fill:none;stroke:#2582B7;stroke-width:0.72;stroke-miterlimit:10;}
	.st2{fill:none;stroke:#388DA0;stroke-width:0.72;stroke-miterlimit:10;}
	.st3{fill:none;stroke:#4C9789;stroke-width:0.72;stroke-miterlimit:10;}
	.st4{fill:none;stroke:#60A172;stroke-width:0.72;stroke-miterlimit:10;}
	.st5{fill:none;stroke:#73AC5C;stroke-width:0.72;stroke-miterlimit:10;}
	.st6{fill:none;stroke:#87B645;stroke-width:0.72;stroke-miterlimit:10;}
	.st7{fill:none;stroke:#9BC02E;stroke-width:0.72;stroke-miterlimit:10;}
	.st8{fill:none;stroke:#AECB17;stroke-width:0.72;stroke-miterlimit:10;}
	.st9{fill:none;stroke:#C2D500;stroke-width:0.72;stroke-miterlimit:10;}
	.st10{fill:#020916;}
</style>
<path class="st0" d="M296.9,8.4c0,0-52.2-5.3-98.1,55.3c-45.9,60.6-173.6-11.7-188.6,61.2c-15,72.9,87.5,163.4,188.6,108.5
	c91.9-49.9,185.1-41.4,185.1-131.2C383.9,12.4,296.9,8.4,296.9,8.4z"/>
<path class="st1" d="M198,222.4c82.1-44.5,165.1-37,165.1-117c0.1-80.1-77.4-83.8-77.4-83.8s-46.5-4.9-87.6,48.9
	c-41,53.8-154.6-10.3-168.3,54.7C16,190.7,107.7,271.3,198,222.4z"/>
<path class="st2" d="M197.3,211.4c72.2-39,145-32.7,145.1-102.8c0.2-70.3-67.7-73.7-67.7-73.7s-40.8-4.5-77,42.5
	c-36.1,47.1-135.5-9-148.1,48.2C36.8,183.6,117.7,254.4,197.3,211.4z"/>
<path class="st3" d="M196.5,200.4c62.4-33.6,124.9-28.3,125.1-88.6c0.2-60.5-58.1-63.7-58.1-63.7s-35.2-4.1-66.5,36.1
	c-31.2,40.3-116.5-7.6-127.9,41.7C57.5,176.5,127.6,237.4,196.5,200.4z"/>
<path class="st4" d="M195.7,189.4c52.5-28.1,104.9-24,105.1-74.5c0.3-50.7-48.5-53.7-48.5-53.7s-29.6-3.8-55.9,29.7
	c-26.3,33.5-97.5-6.3-107.6,35.2C78.3,169.4,137.6,220.4,195.7,189.4z"/>
<path class="st5" d="M194.9,178.4c42.6-22.7,84.8-19.6,85.1-60.3c0.4-41-38.8-43.7-38.8-43.7s-23.9-3.4-45.4,23.4
	c-21.4,26.7-78.5-4.9-87.4,28.7C99,162.4,147.6,203.5,194.9,178.4z"/>
<path class="st6" d="M194.2,167.4c32.8-17.2,64.7-15.3,65.1-46.1c0.4-31.2-29.2-33.7-29.2-33.7s-18.2-3.1-34.8,17
	c-16.5,19.9-59.6-3.6-67.2,22.2C119.7,155.3,157.5,186.5,194.2,167.4z"/>
<path class="st7" d="M193.4,156.4c23-11.7,44.6-10.9,45.1-31.9c0.5-21.4-19.5-23.7-19.5-23.7s-12.6-2.7-24.3,10.6
	c-11.6,13.1-40.7-2.2-46.9,15.7C140.4,148.3,167.5,169.6,193.4,156.4z"/>
<path class="st8" d="M192.6,145.4c13.1-6.2,24.6-6.6,25.1-17.7c0.6-11.6-9.9-13.6-9.9-13.6s-6.9-2.3-13.7,4.2
	c-6.6,6.3-22-0.9-26.7,9.2C160.9,141.2,177.5,152.6,192.6,145.4z"/>
<path class="st9" d="M196.7,127.3c0,0-3.3-5.4-9.7,0.5c-6.3,5.9,0.4,7.8,4.8,6.6C199.6,132.4,196.7,127.3,196.7,127.3z"/>
<path class="st10" d="M246.8,98.6c3.5,3.6,5.2,8.5,5.2,14.8v39.1h-13.7v-36.9c0-3.5-1-6.2-2.9-8.1c-1.9-1.9-4.6-2.9-8.2-2.9
	c-1.9,0-3.7,0.3-5.3,1c-1.6,0.7-3,1.7-4.1,2.9c-1.2,1.3-2.1,2.8-2.7,4.5c-0.6,1.7-1,3.6-1,5.6v33.8h-13.7V72h13.7v21.6
	c0,0.8,0,2.1-0.1,4.1c0,1.9-0.1,3.7-0.2,5.4h0.3c1.9-3.1,4.4-5.5,7.3-7.2c2.9-1.7,6.4-2.6,10.5-2.6C238.4,93.2,243.3,95,246.8,98.6
	 M129.4,127.1H86.3c0.5,5,2.1,9,4.7,12.1c2.6,3.1,6.4,4.6,11.2,4.6c3.3,0,6-0.7,8.2-2c2.1-1.3,3.7-3.2,4.6-5.6h13.4
	c-0.7,2.6-1.8,5-3.3,7.2c-1.5,2.2-3.3,4.1-5.6,5.7c-2.2,1.6-4.8,2.9-7.7,3.8c-2.9,0.9-6.1,1.4-9.7,1.4c-4.6,0-8.7-0.8-12.4-2.4
	c-3.6-1.6-6.7-3.7-9.2-6.5c-2.5-2.7-4.5-6-5.8-9.7c-1.3-3.7-2-7.7-2-11.9c0-4.3,0.7-8.3,2.1-12.1c1.4-3.7,3.3-6.9,5.8-9.7
	c2.5-2.7,5.5-4.9,9.1-6.4c3.5-1.5,7.4-2.3,11.7-2.3c4.3,0,8,0.7,11.3,2.1c3.3,1.4,6.1,3.4,8.6,6c2.8,3,4.9,6.7,6.3,11.1
	C128.8,116.8,129.5,121.7,129.4,127.1 M115.2,118.4c-0.3-4.8-1.6-8.5-4.1-11.2c-2.4-2.7-5.7-4.1-9.9-4.1c-4.5,0-8,1.4-10.4,4.2
	c-2.4,2.8-3.9,6.5-4.4,11H115.2z M302.8,151.8c-3.6,1.6-7.6,2.4-12.1,2.4c-4.5,0-8.5-0.8-12.2-2.4c-3.6-1.6-6.7-3.7-9.3-6.5
	c-2.6-2.7-4.5-6-5.9-9.7c-1.4-3.7-2.1-7.7-2.1-11.9c0-4.3,0.7-8.3,2.1-12.1c1.4-3.7,3.4-6.9,5.9-9.7c2.6-2.7,5.7-4.9,9.3-6.4
	c3.6-1.5,7.7-2.3,12.2-2.3c4.5,0,8.5,0.8,12.1,2.3c3.6,1.6,6.7,3.7,9.2,6.4c2.6,2.7,4.5,6,5.9,9.7c1.4,3.7,2.1,7.7,2.1,12.1
	c0,4.3-0.7,8.2-2.1,11.9c-1.4,3.7-3.3,6.9-5.9,9.7C309.5,148.1,306.4,150.2,302.8,151.8 M302.1,138.1c1.3-1.8,2.3-3.9,3-6.4
	c0.7-2.4,1-5.1,1-8c0-2.9-0.3-5.6-1-8.1c-0.7-2.5-1.7-4.7-3-6.5c-1.3-1.8-2.9-3.3-4.8-4.3c-1.9-1-4.1-1.5-6.7-1.5
	c-2.5,0-4.8,0.5-6.7,1.5c-1.9,1-3.6,2.4-4.9,4.3c-1.3,1.8-2.3,4-2.9,6.5c-0.6,2.5-1,5.2-1,8.1c0,2.9,0.3,5.6,1,8
	c0.6,2.5,1.6,4.6,2.9,6.4c1.3,1.8,2.9,3.2,4.9,4.2c1.9,1,4.2,1.5,6.7,1.5c2.5,0,4.7-0.5,6.7-1.5
	C299.2,141.3,300.8,139.9,302.1,138.1 M192.8,152.5l-23.7-36.7l21.2-21.1H174l-21.7,22.6c0.1-1.7,0.2-3.7,0.3-6.3
	c0.1-2.5,0.2-5.2,0.2-7.9V72H139v80.4h13.6v-20.9l6.8-6.8l17.3,27.7H192.8z"/>
</svg>
